<mxfile host="app.diagrams.net" modified="2020-12-26T13:59:50.317Z" agent="5.0 (Macintosh; Intel Mac OS X 10_15_7) AppleWebKit/537.36 (KHTML, like Gecko) Chrome/87.0.4280.88 Safari/537.36" etag="qIxcN4uWjCxHieQLirmv" version="14.1.2" type="github">
  <diagram id="Tl6y8K_6w0opgfWPzbH6" name="Page-1">
    <mxGraphModel dx="2386" dy="1442" grid="1" gridSize="10" guides="1" tooltips="1" connect="1" arrows="1" fold="1" page="1" pageScale="1" pageWidth="850" pageHeight="1100" math="0" shadow="0">
      <root>
        <mxCell id="0" />
        <mxCell id="1" parent="0" />
        <mxCell id="kSLrb5w7hiMMMBf14vTC-1" value="" style="rounded=0;whiteSpace=wrap;html=1;strokeWidth=1;strokeColor=none;fillColor=#8A8A8A;" vertex="1" parent="1">
          <mxGeometry x="424.22999999999996" y="560.26" width="140" height="40" as="geometry" />
        </mxCell>
        <mxCell id="kSLrb5w7hiMMMBf14vTC-2" value="" style="endArrow=none;html=1;strokeWidth=1;strokeColor=#00FF00;" edge="1" parent="1">
          <mxGeometry width="50" height="50" relative="1" as="geometry">
            <mxPoint x="200" y="2841" as="sourcePoint" />
            <mxPoint x="200" y="10" as="targetPoint" />
          </mxGeometry>
        </mxCell>
        <mxCell id="kSLrb5w7hiMMMBf14vTC-3" value="Street Side" style="text;html=1;strokeColor=none;fillColor=none;align=center;verticalAlign=middle;whiteSpace=wrap;rounded=0;" vertex="1" parent="1">
          <mxGeometry x="40" y="250" width="40" height="20" as="geometry" />
        </mxCell>
        <mxCell id="kSLrb5w7hiMMMBf14vTC-4" value="" style="group" vertex="1" connectable="0" parent="1">
          <mxGeometry x="120" y="400" width="160" height="360" as="geometry" />
        </mxCell>
        <mxCell id="kSLrb5w7hiMMMBf14vTC-5" value="" style="rounded=0;whiteSpace=wrap;html=1;" vertex="1" parent="kSLrb5w7hiMMMBf14vTC-4">
          <mxGeometry width="150" height="360" as="geometry" />
        </mxCell>
        <mxCell id="kSLrb5w7hiMMMBf14vTC-6" value="" style="endArrow=none;dashed=1;html=1;" edge="1" parent="kSLrb5w7hiMMMBf14vTC-4">
          <mxGeometry width="50" height="50" relative="1" as="geometry">
            <mxPoint x="75" y="360" as="sourcePoint" />
            <mxPoint x="75" as="targetPoint" />
          </mxGeometry>
        </mxCell>
        <mxCell id="kSLrb5w7hiMMMBf14vTC-7" value="&lt;font style=&quot;font-size: 6px&quot;&gt;Center Line&lt;/font&gt;" style="text;html=1;strokeColor=none;fillColor=none;align=center;verticalAlign=middle;whiteSpace=wrap;rounded=0;rotation=-90;" vertex="1" parent="kSLrb5w7hiMMMBf14vTC-4">
          <mxGeometry x="40" y="320" width="55" height="20" as="geometry" />
        </mxCell>
        <mxCell id="kSLrb5w7hiMMMBf14vTC-8" value="" style="endArrow=none;html=1;strokeColor=#CCCCCC;" edge="1" parent="kSLrb5w7hiMMMBf14vTC-4">
          <mxGeometry width="50" height="50" relative="1" as="geometry">
            <mxPoint x="55" y="360" as="sourcePoint" />
            <mxPoint x="55" as="targetPoint" />
          </mxGeometry>
        </mxCell>
        <mxCell id="kSLrb5w7hiMMMBf14vTC-9" value="" style="endArrow=blockThin;startArrow=blockThin;html=1;strokeColor=#FF0000;endFill=1;startFill=1;" edge="1" parent="kSLrb5w7hiMMMBf14vTC-4">
          <mxGeometry width="50" height="50" relative="1" as="geometry">
            <mxPoint x="55" y="200" as="sourcePoint" />
            <mxPoint x="74.5" y="200" as="targetPoint" />
          </mxGeometry>
        </mxCell>
        <mxCell id="kSLrb5w7hiMMMBf14vTC-10" value="" style="endArrow=none;html=1;strokeWidth=1;dashed=1;dashPattern=1 2;entryX=0.5;entryY=1;entryDx=0;entryDy=0;" edge="1" parent="kSLrb5w7hiMMMBf14vTC-4" target="kSLrb5w7hiMMMBf14vTC-11">
          <mxGeometry width="50" height="50" relative="1" as="geometry">
            <mxPoint x="70" y="200" as="sourcePoint" />
            <mxPoint x="210" y="120" as="targetPoint" />
          </mxGeometry>
        </mxCell>
        <mxCell id="kSLrb5w7hiMMMBf14vTC-11" value="&lt;font style=&quot;font-size: 6px&quot;&gt;+25mm offset&lt;/font&gt;" style="text;html=1;strokeColor=#666666;fillColor=#f5f5f5;align=center;verticalAlign=middle;whiteSpace=wrap;rounded=0;fontColor=#333333;" vertex="1" parent="kSLrb5w7hiMMMBf14vTC-4">
          <mxGeometry x="95" y="110" width="40" height="20" as="geometry" />
        </mxCell>
        <mxCell id="kSLrb5w7hiMMMBf14vTC-12" value="" style="endArrow=none;html=1;strokeColor=#FF0000;" edge="1" parent="kSLrb5w7hiMMMBf14vTC-4">
          <mxGeometry width="50" height="50" relative="1" as="geometry">
            <mxPoint x="80" y="360" as="sourcePoint" />
            <mxPoint x="80" as="targetPoint" />
          </mxGeometry>
        </mxCell>
        <mxCell id="kSLrb5w7hiMMMBf14vTC-13" value="" style="rounded=0;whiteSpace=wrap;html=1;imageHeight=24;imageWidth=20;fillColor=none;" vertex="1" parent="kSLrb5w7hiMMMBf14vTC-4">
          <mxGeometry x="55" y="160" width="25" height="80" as="geometry" />
        </mxCell>
        <mxCell id="kSLrb5w7hiMMMBf14vTC-14" value="&lt;font style=&quot;font-size: 6px&quot;&gt;1.25&quot; spacer&lt;/font&gt;" style="text;html=1;strokeColor=#666666;fillColor=#f5f5f5;align=center;verticalAlign=middle;whiteSpace=wrap;rounded=0;fontColor=#333333;" vertex="1" parent="kSLrb5w7hiMMMBf14vTC-4">
          <mxGeometry x="5" y="270" width="40" height="20" as="geometry" />
        </mxCell>
        <mxCell id="kSLrb5w7hiMMMBf14vTC-15" value="" style="endArrow=none;html=1;strokeWidth=1;dashed=1;dashPattern=1 2;exitX=0.5;exitY=1;exitDx=0;exitDy=0;" edge="1" parent="kSLrb5w7hiMMMBf14vTC-4" source="kSLrb5w7hiMMMBf14vTC-13" target="kSLrb5w7hiMMMBf14vTC-14">
          <mxGeometry width="50" height="50" relative="1" as="geometry">
            <mxPoint x="80" y="210" as="sourcePoint" />
            <mxPoint x="124.99999999999989" y="140" as="targetPoint" />
          </mxGeometry>
        </mxCell>
        <mxCell id="kSLrb5w7hiMMMBf14vTC-16" value="&lt;span style=&quot;font-size: 8px&quot;&gt;18x7.5&lt;/span&gt;&lt;br style=&quot;font-size: 8px&quot;&gt;&lt;span style=&quot;font-size: 8px&quot;&gt;+25 mm offset&lt;br&gt;1.25 in spacer&lt;br&gt;&lt;/span&gt;" style="text;html=1;strokeColor=none;fillColor=none;align=center;verticalAlign=middle;whiteSpace=wrap;rounded=0;" vertex="1" parent="kSLrb5w7hiMMMBf14vTC-4">
          <mxGeometry x="80" y="10" width="80" height="20" as="geometry" />
        </mxCell>
        <mxCell id="kSLrb5w7hiMMMBf14vTC-17" value="" style="endArrow=none;dashed=1;html=1;dashPattern=1 3;strokeWidth=1;strokeColor=#66B2FF;" edge="1" parent="1">
          <mxGeometry width="50" height="50" relative="1" as="geometry">
            <mxPoint x="295" y="2840" as="sourcePoint" />
            <mxPoint x="295" y="10" as="targetPoint" />
          </mxGeometry>
        </mxCell>
        <mxCell id="kSLrb5w7hiMMMBf14vTC-18" value="" style="endArrow=none;dashed=1;html=1;dashPattern=1 3;strokeWidth=1;strokeColor=#66B2FF;" edge="1" parent="1">
          <mxGeometry width="50" height="50" relative="1" as="geometry">
            <mxPoint x="120" y="2840" as="sourcePoint" />
            <mxPoint x="120" y="10" as="targetPoint" />
          </mxGeometry>
        </mxCell>
        <mxCell id="kSLrb5w7hiMMMBf14vTC-19" value="" style="group" vertex="1" connectable="0" parent="1">
          <mxGeometry x="590" y="840" width="230.5" height="360" as="geometry" />
        </mxCell>
        <mxCell id="kSLrb5w7hiMMMBf14vTC-20" value="" style="endArrow=none;html=1;strokeColor=#FF0000;" edge="1" parent="kSLrb5w7hiMMMBf14vTC-19">
          <mxGeometry width="50" height="50" relative="1" as="geometry">
            <mxPoint x="106" y="300" as="sourcePoint" />
            <mxPoint x="106" y="-60" as="targetPoint" />
          </mxGeometry>
        </mxCell>
        <mxCell id="kSLrb5w7hiMMMBf14vTC-21" value="" style="rounded=0;whiteSpace=wrap;html=1;fillColor=none;" vertex="1" parent="kSLrb5w7hiMMMBf14vTC-19">
          <mxGeometry x="16" y="-60" width="180.5" height="360" as="geometry" />
        </mxCell>
        <mxCell id="kSLrb5w7hiMMMBf14vTC-22" value="" style="endArrow=none;dashed=1;html=1;" edge="1" parent="kSLrb5w7hiMMMBf14vTC-19">
          <mxGeometry width="50" height="50" relative="1" as="geometry">
            <mxPoint x="106" y="300" as="sourcePoint" />
            <mxPoint x="106" y="-60" as="targetPoint" />
          </mxGeometry>
        </mxCell>
        <mxCell id="kSLrb5w7hiMMMBf14vTC-23" value="&lt;font style=&quot;font-size: 6px&quot;&gt;Center Line&lt;/font&gt;" style="edgeLabel;html=1;align=center;verticalAlign=middle;resizable=0;points=[];rotation=-90;" vertex="1" connectable="0" parent="kSLrb5w7hiMMMBf14vTC-22">
          <mxGeometry x="0.9268" relative="1" as="geometry">
            <mxPoint x="-8.5" y="316.86" as="offset" />
          </mxGeometry>
        </mxCell>
        <mxCell id="kSLrb5w7hiMMMBf14vTC-24" value="&lt;font style=&quot;font-size: 8px&quot;&gt;18x9&lt;br&gt;+0 mm offset&lt;/font&gt;" style="text;html=1;strokeColor=none;fillColor=none;align=center;verticalAlign=middle;whiteSpace=wrap;rounded=0;" vertex="1" parent="kSLrb5w7hiMMMBf14vTC-19">
          <mxGeometry x="116" y="-50" width="70" height="20" as="geometry" />
        </mxCell>
        <mxCell id="kSLrb5w7hiMMMBf14vTC-25" value="" style="shape=trapezoid;perimeter=trapezoidPerimeter;whiteSpace=wrap;html=1;fixedSize=1;strokeWidth=1;rotation=90;fillColor=#f5f5f5;strokeColor=#666666;fontColor=#333333;size=130.5;dashed=1;" vertex="1" parent="kSLrb5w7hiMMMBf14vTC-19">
          <mxGeometry x="-120" y="75" width="360.5" height="90" as="geometry" />
        </mxCell>
        <mxCell id="kSLrb5w7hiMMMBf14vTC-26" value="" style="endArrow=none;html=1;strokeWidth=1;strokeColor=#00FF00;" edge="1" parent="1">
          <mxGeometry width="50" height="50" relative="1" as="geometry">
            <mxPoint x="423.05999999999995" y="2841" as="sourcePoint" />
            <mxPoint x="423.05999999999995" y="10" as="targetPoint" />
          </mxGeometry>
        </mxCell>
        <mxCell id="kSLrb5w7hiMMMBf14vTC-27" value="" style="endArrow=none;dashed=1;html=1;dashPattern=1 3;strokeWidth=1;strokeColor=#66B2FF;" edge="1" parent="1">
          <mxGeometry width="50" height="50" relative="1" as="geometry">
            <mxPoint x="343.05999999999995" y="2840" as="sourcePoint" />
            <mxPoint x="343.05999999999995" y="10" as="targetPoint" />
          </mxGeometry>
        </mxCell>
        <mxCell id="kSLrb5w7hiMMMBf14vTC-28" value="" style="rounded=0;whiteSpace=wrap;html=1;" vertex="1" parent="1">
          <mxGeometry x="145" y="20" width="150" height="360" as="geometry" />
        </mxCell>
        <mxCell id="kSLrb5w7hiMMMBf14vTC-29" value="" style="endArrow=none;dashed=1;html=1;" edge="1" parent="1">
          <mxGeometry width="50" height="50" relative="1" as="geometry">
            <mxPoint x="220" y="380" as="sourcePoint" />
            <mxPoint x="220" y="20" as="targetPoint" />
          </mxGeometry>
        </mxCell>
        <mxCell id="kSLrb5w7hiMMMBf14vTC-30" value="&lt;font style=&quot;font-size: 6px&quot;&gt;Center Line&lt;/font&gt;" style="text;html=1;strokeColor=none;fillColor=none;align=center;verticalAlign=middle;whiteSpace=wrap;rounded=0;rotation=-90;" vertex="1" parent="1">
          <mxGeometry x="191" y="350" width="40" height="20" as="geometry" />
        </mxCell>
        <mxCell id="kSLrb5w7hiMMMBf14vTC-31" value="" style="endArrow=none;html=1;strokeColor=#FF0000;" edge="1" parent="1">
          <mxGeometry width="50" height="50" relative="1" as="geometry">
            <mxPoint x="200" y="380" as="sourcePoint" />
            <mxPoint x="200" y="20" as="targetPoint" />
          </mxGeometry>
        </mxCell>
        <mxCell id="kSLrb5w7hiMMMBf14vTC-32" value="" style="endArrow=blockThin;startArrow=blockThin;html=1;strokeColor=#FF0000;endFill=1;startFill=1;" edge="1" parent="1">
          <mxGeometry width="50" height="50" relative="1" as="geometry">
            <mxPoint x="200" y="220" as="sourcePoint" />
            <mxPoint x="219.5" y="220" as="targetPoint" />
          </mxGeometry>
        </mxCell>
        <mxCell id="kSLrb5w7hiMMMBf14vTC-33" value="" style="endArrow=none;html=1;strokeWidth=1;dashed=1;dashPattern=1 2;entryX=0.5;entryY=1;entryDx=0;entryDy=0;" edge="1" parent="1" target="kSLrb5w7hiMMMBf14vTC-34">
          <mxGeometry width="50" height="50" relative="1" as="geometry">
            <mxPoint x="215" y="220" as="sourcePoint" />
            <mxPoint x="355" y="140" as="targetPoint" />
          </mxGeometry>
        </mxCell>
        <mxCell id="kSLrb5w7hiMMMBf14vTC-34" value="&lt;font style=&quot;font-size: 6px&quot;&gt;+25mm Offset&lt;/font&gt;" style="text;html=1;strokeColor=#666666;fillColor=#f5f5f5;align=center;verticalAlign=middle;whiteSpace=wrap;rounded=0;fontColor=#333333;" vertex="1" parent="1">
          <mxGeometry x="240" y="130" width="45" height="20" as="geometry" />
        </mxCell>
        <mxCell id="kSLrb5w7hiMMMBf14vTC-35" value="&lt;span style=&quot;font-size: 8px&quot;&gt;18x7.5&lt;/span&gt;&lt;br style=&quot;font-size: 8px&quot;&gt;&lt;span style=&quot;font-size: 8px&quot;&gt;+25 mm offset&lt;/span&gt;" style="text;html=1;strokeColor=none;fillColor=none;align=center;verticalAlign=middle;whiteSpace=wrap;rounded=0;" vertex="1" parent="1">
          <mxGeometry x="225" y="30" width="70" height="20" as="geometry" />
        </mxCell>
        <mxCell id="kSLrb5w7hiMMMBf14vTC-36" value="" style="rounded=0;whiteSpace=wrap;html=1;strokeWidth=1;strokeColor=none;fillColor=#8A8A8A;" vertex="1" parent="1">
          <mxGeometry x="423.52000000000004" y="1320.51" width="140" height="40" as="geometry" />
        </mxCell>
        <mxCell id="kSLrb5w7hiMMMBf14vTC-37" value="" style="rounded=0;whiteSpace=wrap;html=1;strokeWidth=1;strokeColor=none;fillColor=#8A8A8A;" vertex="1" parent="1">
          <mxGeometry x="424.22999999999996" y="1700.76" width="140" height="40" as="geometry" />
        </mxCell>
        <mxCell id="kSLrb5w7hiMMMBf14vTC-38" value="" style="group" vertex="1" connectable="0" parent="1">
          <mxGeometry x="350.5199999999999" y="1540.51" width="170" height="360.53999999999996" as="geometry" />
        </mxCell>
        <mxCell id="kSLrb5w7hiMMMBf14vTC-39" value="" style="rounded=0;whiteSpace=wrap;html=1;fillColor=none;" vertex="1" parent="kSLrb5w7hiMMMBf14vTC-38">
          <mxGeometry width="170" height="360" as="geometry" />
        </mxCell>
        <mxCell id="kSLrb5w7hiMMMBf14vTC-40" value="" style="endArrow=none;dashed=1;html=1;strokeColor=#FF0000;" edge="1" parent="kSLrb5w7hiMMMBf14vTC-38">
          <mxGeometry width="50" height="50" relative="1" as="geometry">
            <mxPoint x="84.71000000000004" y="360" as="sourcePoint" />
            <mxPoint x="84.71000000000004" as="targetPoint" />
          </mxGeometry>
        </mxCell>
        <mxCell id="kSLrb5w7hiMMMBf14vTC-41" value="&lt;font style=&quot;font-size: 6px&quot;&gt;Center Line&lt;/font&gt;" style="edgeLabel;html=1;align=center;verticalAlign=middle;resizable=0;points=[];rotation=-90;" vertex="1" connectable="0" parent="kSLrb5w7hiMMMBf14vTC-40">
          <mxGeometry x="0.9268" relative="1" as="geometry">
            <mxPoint x="-8.5" y="316.86" as="offset" />
          </mxGeometry>
        </mxCell>
        <mxCell id="kSLrb5w7hiMMMBf14vTC-42" value="" style="shape=trapezoid;perimeter=trapezoidPerimeter;whiteSpace=wrap;html=1;fixedSize=1;strokeWidth=1;rotation=90;strokeColor=#666666;fontColor=#333333;size=130.5;dashed=1;fillColor=none;" vertex="1" parent="kSLrb5w7hiMMMBf14vTC-38">
          <mxGeometry x="-143.7899999999999" y="144.28999999999996" width="360.5" height="72" as="geometry" />
        </mxCell>
        <mxCell id="kSLrb5w7hiMMMBf14vTC-43" value="&lt;font style=&quot;font-size: 8px&quot;&gt;18x8.5&lt;br&gt;+12 mm offset&lt;/font&gt;" style="text;html=1;strokeColor=none;fillColor=none;align=center;verticalAlign=middle;whiteSpace=wrap;rounded=0;" vertex="1" parent="kSLrb5w7hiMMMBf14vTC-38">
          <mxGeometry x="100" y="9.75" width="70" height="20" as="geometry" />
        </mxCell>
        <mxCell id="kSLrb5w7hiMMMBf14vTC-44" value="" style="group" vertex="1" connectable="0" parent="1">
          <mxGeometry x="347.8499999999999" y="1160.26" width="170" height="360.53999999999996" as="geometry" />
        </mxCell>
        <mxCell id="kSLrb5w7hiMMMBf14vTC-45" value="" style="group" vertex="1" connectable="0" parent="kSLrb5w7hiMMMBf14vTC-44">
          <mxGeometry width="170" height="360.53999999999996" as="geometry" />
        </mxCell>
        <mxCell id="kSLrb5w7hiMMMBf14vTC-46" value="" style="rounded=0;whiteSpace=wrap;html=1;fillColor=none;" vertex="1" parent="kSLrb5w7hiMMMBf14vTC-45">
          <mxGeometry width="170" height="360" as="geometry" />
        </mxCell>
        <mxCell id="kSLrb5w7hiMMMBf14vTC-47" value="" style="endArrow=none;dashed=1;html=1;strokeColor=#FF0000;" edge="1" parent="kSLrb5w7hiMMMBf14vTC-45">
          <mxGeometry width="50" height="50" relative="1" as="geometry">
            <mxPoint x="84.71000000000004" y="360" as="sourcePoint" />
            <mxPoint x="84.71000000000004" as="targetPoint" />
          </mxGeometry>
        </mxCell>
        <mxCell id="kSLrb5w7hiMMMBf14vTC-48" value="&lt;font style=&quot;font-size: 6px&quot;&gt;Center Line&lt;/font&gt;" style="edgeLabel;html=1;align=center;verticalAlign=middle;resizable=0;points=[];rotation=-90;" vertex="1" connectable="0" parent="kSLrb5w7hiMMMBf14vTC-47">
          <mxGeometry x="0.9268" relative="1" as="geometry">
            <mxPoint x="-8.5" y="316.86" as="offset" />
          </mxGeometry>
        </mxCell>
        <mxCell id="kSLrb5w7hiMMMBf14vTC-49" value="" style="shape=trapezoid;perimeter=trapezoidPerimeter;whiteSpace=wrap;html=1;fixedSize=1;strokeWidth=1;rotation=90;strokeColor=#666666;fontColor=#333333;size=130.5;dashed=1;fillColor=none;" vertex="1" parent="kSLrb5w7hiMMMBf14vTC-45">
          <mxGeometry x="-142.7899999999999" y="144.28999999999996" width="360.5" height="75" as="geometry" />
        </mxCell>
        <mxCell id="kSLrb5w7hiMMMBf14vTC-50" value="&lt;font style=&quot;font-size: 8px&quot;&gt;18x8.5&lt;br&gt;+10 mm offset&lt;/font&gt;" style="text;html=1;strokeColor=none;fillColor=none;align=center;verticalAlign=middle;whiteSpace=wrap;rounded=0;" vertex="1" parent="kSLrb5w7hiMMMBf14vTC-45">
          <mxGeometry x="100" y="9.75" width="70" height="20" as="geometry" />
        </mxCell>
        <mxCell id="kSLrb5w7hiMMMBf14vTC-51" value="" style="rounded=0;whiteSpace=wrap;html=1;strokeWidth=1;strokeColor=none;fillColor=#8A8A8A;" vertex="1" parent="1">
          <mxGeometry x="423.52000000000004" y="940.25" width="140" height="40" as="geometry" />
        </mxCell>
        <mxCell id="kSLrb5w7hiMMMBf14vTC-52" value="" style="group" vertex="1" connectable="0" parent="1">
          <mxGeometry x="343.80999999999983" y="779.8400000000001" width="170.0800000000001" height="360.5" as="geometry" />
        </mxCell>
        <mxCell id="kSLrb5w7hiMMMBf14vTC-53" value="" style="group" vertex="1" connectable="0" parent="kSLrb5w7hiMMMBf14vTC-52">
          <mxGeometry width="170.0800000000001" height="360.5" as="geometry" />
        </mxCell>
        <mxCell id="kSLrb5w7hiMMMBf14vTC-54" value="" style="rounded=0;whiteSpace=wrap;html=1;fillColor=none;" vertex="1" parent="kSLrb5w7hiMMMBf14vTC-53">
          <mxGeometry x="0.08000000000009422" y="0.4099999999998829" width="170" height="360" as="geometry" />
        </mxCell>
        <mxCell id="kSLrb5w7hiMMMBf14vTC-55" value="" style="endArrow=none;dashed=1;html=1;strokeColor=#FF0000;" edge="1" parent="kSLrb5w7hiMMMBf14vTC-53">
          <mxGeometry width="50" height="50" relative="1" as="geometry">
            <mxPoint x="84.79000000000013" y="360.40999999999985" as="sourcePoint" />
            <mxPoint x="84.79000000000013" y="0.4099999999998829" as="targetPoint" />
          </mxGeometry>
        </mxCell>
        <mxCell id="kSLrb5w7hiMMMBf14vTC-56" value="&lt;font style=&quot;font-size: 6px&quot;&gt;Center Line&lt;/font&gt;" style="edgeLabel;html=1;align=center;verticalAlign=middle;resizable=0;points=[];rotation=-90;" vertex="1" connectable="0" parent="kSLrb5w7hiMMMBf14vTC-55">
          <mxGeometry x="0.9268" relative="1" as="geometry">
            <mxPoint x="-8.5" y="316.86" as="offset" />
          </mxGeometry>
        </mxCell>
        <mxCell id="kSLrb5w7hiMMMBf14vTC-57" value="" style="shape=trapezoid;perimeter=trapezoidPerimeter;whiteSpace=wrap;html=1;fixedSize=1;strokeWidth=1;rotation=90;fillColor=#f5f5f5;strokeColor=#666666;fontColor=#333333;size=130.5;dashed=1;" vertex="1" parent="kSLrb5w7hiMMMBf14vTC-53">
          <mxGeometry x="-140.75" y="140.75" width="360.5" height="79" as="geometry" />
        </mxCell>
        <mxCell id="kSLrb5w7hiMMMBf14vTC-58" value="&lt;font style=&quot;font-size: 8px&quot;&gt;18x8.5&lt;br&gt;+6 mm offset&lt;/font&gt;" style="text;html=1;strokeColor=none;fillColor=none;align=center;verticalAlign=middle;whiteSpace=wrap;rounded=0;" vertex="1" parent="kSLrb5w7hiMMMBf14vTC-53">
          <mxGeometry x="100.0800000000001" y="10.159999999999883" width="70" height="20" as="geometry" />
        </mxCell>
        <mxCell id="kSLrb5w7hiMMMBf14vTC-59" value="" style="rounded=0;whiteSpace=wrap;html=1;strokeWidth=1;fillColor=#CCFF99;strokeColor=none;" vertex="1" parent="kSLrb5w7hiMMMBf14vTC-53">
          <mxGeometry x="79.71000000000014" y="98.66999999999987" width="5" height="10" as="geometry" />
        </mxCell>
        <mxCell id="kSLrb5w7hiMMMBf14vTC-60" value="" style="group" vertex="1" connectable="0" parent="1">
          <mxGeometry x="338.18499999999995" y="400.0050000000001" width="170.24500000000006" height="360.5" as="geometry" />
        </mxCell>
        <mxCell id="kSLrb5w7hiMMMBf14vTC-61" value="" style="group" vertex="1" connectable="0" parent="kSLrb5w7hiMMMBf14vTC-60">
          <mxGeometry width="170.24500000000006" height="360.5" as="geometry" />
        </mxCell>
        <mxCell id="kSLrb5w7hiMMMBf14vTC-62" value="" style="group" vertex="1" connectable="0" parent="kSLrb5w7hiMMMBf14vTC-61">
          <mxGeometry width="170.24500000000006" height="360.5" as="geometry" />
        </mxCell>
        <mxCell id="kSLrb5w7hiMMMBf14vTC-63" value="" style="rounded=0;whiteSpace=wrap;html=1;fillColor=none;" vertex="1" parent="kSLrb5w7hiMMMBf14vTC-62">
          <mxGeometry x="0.2450000000000614" y="0.24499999999989086" width="170" height="360" as="geometry" />
        </mxCell>
        <mxCell id="kSLrb5w7hiMMMBf14vTC-64" value="" style="endArrow=none;dashed=1;html=1;strokeColor=#FF0000;" edge="1" parent="kSLrb5w7hiMMMBf14vTC-62">
          <mxGeometry width="50" height="50" relative="1" as="geometry">
            <mxPoint x="84.9550000000001" y="360.2449999999999" as="sourcePoint" />
            <mxPoint x="84.9550000000001" y="0.24499999999989086" as="targetPoint" />
          </mxGeometry>
        </mxCell>
        <mxCell id="kSLrb5w7hiMMMBf14vTC-65" value="&lt;font style=&quot;font-size: 6px&quot;&gt;Center Line&lt;/font&gt;" style="edgeLabel;html=1;align=center;verticalAlign=middle;resizable=0;points=[];rotation=-90;" vertex="1" connectable="0" parent="kSLrb5w7hiMMMBf14vTC-64">
          <mxGeometry x="0.9268" relative="1" as="geometry">
            <mxPoint x="-8.5" y="316.86" as="offset" />
          </mxGeometry>
        </mxCell>
        <mxCell id="kSLrb5w7hiMMMBf14vTC-66" value="" style="shape=trapezoid;perimeter=trapezoidPerimeter;whiteSpace=wrap;html=1;fixedSize=1;strokeWidth=1;rotation=90;fillColor=#f5f5f5;strokeColor=#666666;fontColor=#333333;size=130.5;dashed=1;" vertex="1" parent="kSLrb5w7hiMMMBf14vTC-62">
          <mxGeometry x="-138.18499999999995" y="138.18499999999995" width="360.5" height="84.13" as="geometry" />
        </mxCell>
        <mxCell id="kSLrb5w7hiMMMBf14vTC-67" value="&lt;font style=&quot;font-size: 8px&quot;&gt;18x8.5&lt;br&gt;0 mm offset&lt;/font&gt;" style="text;html=1;strokeColor=none;fillColor=none;align=center;verticalAlign=middle;whiteSpace=wrap;rounded=0;" vertex="1" parent="kSLrb5w7hiMMMBf14vTC-62">
          <mxGeometry x="100.24500000000006" y="9.99499999999989" width="70" height="20" as="geometry" />
        </mxCell>
        <mxCell id="kSLrb5w7hiMMMBf14vTC-68" value="" style="endArrow=none;dashed=1;html=1;dashPattern=1 3;strokeWidth=1;strokeColor=#66B2FF;" edge="1" parent="1">
          <mxGeometry width="50" height="50" relative="1" as="geometry">
            <mxPoint x="518.06" y="2840" as="sourcePoint" />
            <mxPoint x="518.06" y="10" as="targetPoint" />
          </mxGeometry>
        </mxCell>
        <mxCell id="kSLrb5w7hiMMMBf14vTC-69" value="" style="endArrow=none;html=1;strokeWidth=1;strokeColor=#00FF00;" edge="1" parent="1">
          <mxGeometry width="50" height="50" relative="1" as="geometry">
            <mxPoint x="696" y="2841" as="sourcePoint" />
            <mxPoint x="696" y="10" as="targetPoint" />
          </mxGeometry>
        </mxCell>
        <mxCell id="kSLrb5w7hiMMMBf14vTC-70" value="" style="endArrow=none;dashed=1;html=1;dashPattern=1 3;strokeWidth=1;strokeColor=#66B2FF;" edge="1" parent="1">
          <mxGeometry width="50" height="50" relative="1" as="geometry">
            <mxPoint x="791" y="2840" as="sourcePoint" />
            <mxPoint x="791" y="10" as="targetPoint" />
          </mxGeometry>
        </mxCell>
        <mxCell id="kSLrb5w7hiMMMBf14vTC-71" value="" style="endArrow=none;dashed=1;html=1;dashPattern=1 3;strokeWidth=1;strokeColor=#66B2FF;" edge="1" parent="1">
          <mxGeometry width="50" height="50" relative="1" as="geometry">
            <mxPoint x="616" y="2840" as="sourcePoint" />
            <mxPoint x="616" y="10" as="targetPoint" />
          </mxGeometry>
        </mxCell>
        <mxCell id="kSLrb5w7hiMMMBf14vTC-72" value="&lt;font&gt;&lt;font style=&quot;font-size: 6px&quot;&gt;&lt;font&gt;1 inch = 25.4 mm&lt;br&gt;&lt;br&gt;0.75 inch = 19.05 mm&lt;br&gt;&lt;br&gt;0.5 inch = 12.7 mm&lt;br&gt;&lt;br&gt;0.25 inch = 6.35 mm&lt;/font&gt;&lt;br&gt;&lt;/font&gt;&lt;br&gt;&lt;/font&gt;" style="text;html=1;strokeColor=none;fillColor=none;align=left;verticalAlign=middle;whiteSpace=wrap;rounded=0;" vertex="1" parent="1">
          <mxGeometry x="10" y="30" width="120" height="59.5" as="geometry" />
        </mxCell>
        <mxCell id="kSLrb5w7hiMMMBf14vTC-73" value="" style="rounded=0;whiteSpace=wrap;html=1;strokeWidth=1;fillColor=#CCFF99;strokeColor=none;" vertex="1" parent="1">
          <mxGeometry x="86" y="10" width="20" height="10" as="geometry" />
        </mxCell>
        <mxCell id="kSLrb5w7hiMMMBf14vTC-74" value="" style="rounded=0;whiteSpace=wrap;html=1;strokeWidth=1;fillColor=#CCFF99;strokeColor=none;" vertex="1" parent="1">
          <mxGeometry x="86" y="40" width="15" height="10" as="geometry" />
        </mxCell>
        <mxCell id="kSLrb5w7hiMMMBf14vTC-75" value="" style="rounded=0;whiteSpace=wrap;html=1;strokeWidth=1;fillColor=#CCFF99;strokeColor=none;" vertex="1" parent="1">
          <mxGeometry x="86" y="70" width="10" height="10" as="geometry" />
        </mxCell>
        <mxCell id="kSLrb5w7hiMMMBf14vTC-76" value="" style="rounded=0;whiteSpace=wrap;html=1;strokeWidth=1;fillColor=#CCFF99;strokeColor=none;" vertex="1" parent="1">
          <mxGeometry x="86" y="100" width="5" height="10" as="geometry" />
        </mxCell>
        <mxCell id="kSLrb5w7hiMMMBf14vTC-77" value="" style="rounded=0;whiteSpace=wrap;html=1;strokeWidth=1;fillColor=#CCFF99;strokeColor=none;" vertex="1" parent="1">
          <mxGeometry x="580" y="10" width="5" height="10" as="geometry" />
        </mxCell>
        <mxCell id="kSLrb5w7hiMMMBf14vTC-78" value="" style="rounded=0;whiteSpace=wrap;html=1;strokeWidth=1;strokeColor=none;fillColor=#8A8A8A;" vertex="1" parent="1">
          <mxGeometry x="423.22999999999996" y="179.74" width="140" height="40" as="geometry" />
        </mxCell>
        <mxCell id="kSLrb5w7hiMMMBf14vTC-79" value="" style="group" vertex="1" connectable="0" parent="1">
          <mxGeometry x="359.4099999999999" y="19.490000000000112" width="170.24000000000007" height="360.5" as="geometry" />
        </mxCell>
        <mxCell id="kSLrb5w7hiMMMBf14vTC-80" value="" style="rounded=0;whiteSpace=wrap;html=1;fillColor=none;" vertex="1" parent="kSLrb5w7hiMMMBf14vTC-79">
          <mxGeometry x="0.2400000000000766" y="0.2499999999998863" width="170" height="360" as="geometry" />
        </mxCell>
        <mxCell id="kSLrb5w7hiMMMBf14vTC-81" value="" style="endArrow=none;dashed=1;html=1;strokeColor=#FF0000;" edge="1" parent="kSLrb5w7hiMMMBf14vTC-79">
          <mxGeometry width="50" height="50" relative="1" as="geometry">
            <mxPoint x="84.95000000000012" y="360.2499999999999" as="sourcePoint" />
            <mxPoint x="84.95000000000012" y="0.2499999999998863" as="targetPoint" />
          </mxGeometry>
        </mxCell>
        <mxCell id="kSLrb5w7hiMMMBf14vTC-82" value="&lt;font style=&quot;font-size: 6px&quot;&gt;Center Line&lt;/font&gt;" style="edgeLabel;html=1;align=center;verticalAlign=middle;resizable=0;points=[];rotation=-90;" vertex="1" connectable="0" parent="kSLrb5w7hiMMMBf14vTC-81">
          <mxGeometry x="0.9268" relative="1" as="geometry">
            <mxPoint x="-8.5" y="316.86" as="offset" />
          </mxGeometry>
        </mxCell>
        <mxCell id="kSLrb5w7hiMMMBf14vTC-83" value="" style="shape=trapezoid;perimeter=trapezoidPerimeter;whiteSpace=wrap;html=1;fixedSize=1;strokeWidth=1;rotation=90;fillColor=#f5f5f5;strokeColor=#666666;fontColor=#333333;size=130.5;dashed=1;" vertex="1" parent="kSLrb5w7hiMMMBf14vTC-79">
          <mxGeometry x="-149.095" y="149.095" width="360.5" height="62.31" as="geometry" />
        </mxCell>
        <mxCell id="kSLrb5w7hiMMMBf14vTC-84" value="&lt;font style=&quot;font-size: 8px&quot;&gt;18x8.5&lt;br&gt;+25 mm offset&lt;/font&gt;" style="text;html=1;strokeColor=none;fillColor=none;align=center;verticalAlign=middle;whiteSpace=wrap;rounded=0;" vertex="1" parent="kSLrb5w7hiMMMBf14vTC-79">
          <mxGeometry x="100.24000000000008" y="9.999999999999886" width="70" height="20" as="geometry" />
        </mxCell>
        <mxCell id="kSLrb5w7hiMMMBf14vTC-85" value="" style="endArrow=blockThin;startArrow=blockThin;html=1;strokeColor=#FF0000;endFill=1;startFill=1;" edge="1" parent="kSLrb5w7hiMMMBf14vTC-79">
          <mxGeometry width="50" height="50" relative="1" as="geometry">
            <mxPoint x="63.99000000000008" y="180.01999999999987" as="sourcePoint" />
            <mxPoint x="83.49000000000008" y="180.01999999999987" as="targetPoint" />
          </mxGeometry>
        </mxCell>
        <mxCell id="kSLrb5w7hiMMMBf14vTC-86" value="" style="rounded=0;whiteSpace=wrap;html=1;strokeWidth=1;strokeColor=none;fillColor=#8A8A8A;" vertex="1" parent="1">
          <mxGeometry x="696" y="179.24" width="140" height="40" as="geometry" />
        </mxCell>
        <mxCell id="kSLrb5w7hiMMMBf14vTC-87" value="" style="group" vertex="1" connectable="0" parent="1">
          <mxGeometry x="612" y="19" width="180.76" height="360.75" as="geometry" />
        </mxCell>
        <mxCell id="kSLrb5w7hiMMMBf14vTC-88" value="" style="rounded=0;whiteSpace=wrap;html=1;fillColor=none;" vertex="1" parent="kSLrb5w7hiMMMBf14vTC-87">
          <mxGeometry x="0.2599999999999909" y="0.75" width="180.5" height="360" as="geometry" />
        </mxCell>
        <mxCell id="kSLrb5w7hiMMMBf14vTC-89" value="" style="shape=trapezoid;perimeter=trapezoidPerimeter;whiteSpace=wrap;html=1;fixedSize=1;strokeWidth=1;rotation=90;fillColor=#f5f5f5;strokeColor=#666666;fontColor=#333333;size=130.5;dashed=1;" vertex="1" parent="kSLrb5w7hiMMMBf14vTC-87">
          <mxGeometry x="-138" y="138" width="360" height="84" as="geometry" />
        </mxCell>
        <mxCell id="kSLrb5w7hiMMMBf14vTC-90" value="" style="endArrow=none;html=1;strokeColor=#FF0000;" edge="1" parent="kSLrb5w7hiMMMBf14vTC-87">
          <mxGeometry width="50" height="50" relative="1" as="geometry">
            <mxPoint x="90" y="360.24" as="sourcePoint" />
            <mxPoint x="90" y="0.23999999999999844" as="targetPoint" />
          </mxGeometry>
        </mxCell>
        <mxCell id="kSLrb5w7hiMMMBf14vTC-91" value="&lt;font style=&quot;font-size: 8px&quot;&gt;18x9&lt;br&gt;+6 mm offset&lt;/font&gt;" style="text;html=1;strokeColor=none;fillColor=none;align=center;verticalAlign=middle;whiteSpace=wrap;rounded=0;" vertex="1" parent="kSLrb5w7hiMMMBf14vTC-87">
          <mxGeometry x="90.25999999999999" y="10.75" width="70" height="20" as="geometry" />
        </mxCell>
        <mxCell id="kSLrb5w7hiMMMBf14vTC-92" value="" style="group" vertex="1" connectable="0" parent="1">
          <mxGeometry x="610" y="400.51" width="234" height="360" as="geometry" />
        </mxCell>
        <mxCell id="kSLrb5w7hiMMMBf14vTC-93" value="" style="endArrow=none;html=1;strokeColor=#FF0000;" edge="1" parent="kSLrb5w7hiMMMBf14vTC-92">
          <mxGeometry width="50" height="50" relative="1" as="geometry">
            <mxPoint x="95.52" y="360" as="sourcePoint" />
            <mxPoint x="95.52" as="targetPoint" />
          </mxGeometry>
        </mxCell>
        <mxCell id="kSLrb5w7hiMMMBf14vTC-94" value="" style="rounded=0;whiteSpace=wrap;html=1;fillColor=none;" vertex="1" parent="kSLrb5w7hiMMMBf14vTC-92">
          <mxGeometry x="5.52" width="180.5" height="360" as="geometry" />
        </mxCell>
        <mxCell id="kSLrb5w7hiMMMBf14vTC-95" value="" style="endArrow=none;dashed=1;html=1;" edge="1" parent="kSLrb5w7hiMMMBf14vTC-92">
          <mxGeometry width="50" height="50" relative="1" as="geometry">
            <mxPoint x="95.52" y="360" as="sourcePoint" />
            <mxPoint x="95.52" as="targetPoint" />
          </mxGeometry>
        </mxCell>
        <mxCell id="kSLrb5w7hiMMMBf14vTC-96" value="&lt;font style=&quot;font-size: 6px&quot;&gt;Center Line&lt;/font&gt;" style="edgeLabel;html=1;align=center;verticalAlign=middle;resizable=0;points=[];rotation=-90;" vertex="1" connectable="0" parent="kSLrb5w7hiMMMBf14vTC-95">
          <mxGeometry x="0.9268" relative="1" as="geometry">
            <mxPoint x="-8.5" y="316.86" as="offset" />
          </mxGeometry>
        </mxCell>
        <mxCell id="kSLrb5w7hiMMMBf14vTC-97" value="&lt;font style=&quot;font-size: 8px&quot;&gt;18x9&lt;br&gt;12 mm offset&lt;/font&gt;" style="text;html=1;strokeColor=none;fillColor=none;align=center;verticalAlign=middle;whiteSpace=wrap;rounded=0;" vertex="1" parent="kSLrb5w7hiMMMBf14vTC-92">
          <mxGeometry x="109.52" y="10" width="70" height="20" as="geometry" />
        </mxCell>
        <mxCell id="kSLrb5w7hiMMMBf14vTC-98" value="" style="shape=trapezoid;perimeter=trapezoidPerimeter;whiteSpace=wrap;html=1;fixedSize=1;strokeWidth=1;rotation=90;fillColor=#f5f5f5;strokeColor=#666666;fontColor=#333333;size=130.5;dashed=1;" vertex="1" parent="kSLrb5w7hiMMMBf14vTC-92">
          <mxGeometry x="-135" y="139.98" width="360.5" height="80" as="geometry" />
        </mxCell>
        <mxCell id="kSLrb5w7hiMMMBf14vTC-99" value="" style="rounded=0;whiteSpace=wrap;html=1;strokeWidth=1;strokeColor=none;fillColor=#8A8A8A;" vertex="1" parent="kSLrb5w7hiMMMBf14vTC-92">
          <mxGeometry x="86" y="160" width="140" height="40" as="geometry" />
        </mxCell>
      </root>
    </mxGraphModel>
  </diagram>
</mxfile>
